<svg width="153" height="93" viewBox="0 0 153 93" fill="none" xmlns="http://www.w3.org/2000/svg">
<path d="M39.4862 5.21484C40.2148 5.28599 40.9906 5.70896 41.6763 5.95838L46.2899 7.66442C47.4342 8.09816 48.6078 8.60314 49.7975 8.8923C48.5999 9.15888 47.4392 9.62837 46.2264 9.81461C46.3999 9.89076 46.5657 9.9801 46.7303 10.074C47.9644 10.7777 49.1508 11.5838 50.3394 12.3611C59.3338 18.2426 67.4214 25.9227 72.5634 35.4662C74.0377 38.2023 75.2612 41.0227 76.0822 44.0271C76.4524 45.4187 76.7113 46.8376 76.8564 48.2706C77.3009 52.4892 76.6806 56.2116 74.5778 59.9086C71.6189 65.1108 66.0258 69.572 61.066 72.785C60.1126 73.4026 58.9208 74.3199 57.8355 74.6292C56.8273 74.9164 55.6316 74.8919 54.5834 75.0025C53.3845 75.1289 52.1899 75.3263 50.9986 75.5091C49.9338 75.6723 48.8441 75.8045 47.8038 76.089C46.7303 76.193 45.1662 76.59 44.0919 76.8455C42.5299 77.2087 40.9744 77.5992 39.4262 78.0171C37.8841 78.4453 36.3551 78.9314 34.8066 79.335C34.8158 79.3227 34.8245 79.3103 34.8336 79.2982C34.8491 79.278 34.8649 79.2582 34.8802 79.2381C35.4478 78.4997 37.3482 77.1461 38.1727 76.5065C39.2476 75.6746 40.3081 74.8241 41.3536 73.9552C47.6383 68.7748 54.5344 61.5236 58.0342 54.106C59.3457 51.3263 60.2856 48.2371 60.5763 45.1683C60.6828 44.0439 60.7711 42.9083 60.7484 41.7785C60.5534 32.076 55.5204 22.9852 49.6372 15.5493C48.7528 14.4395 47.8329 13.3586 46.8789 12.3084C46.3741 11.7608 45.8078 11.2535 45.3383 10.6761L45.297 10.6248C45.1377 11.8468 44.7889 13.06 44.6063 14.285C43.9132 12.8314 43.0409 11.438 42.2526 10.0321C41.3454 8.41423 40.5098 6.76322 39.4862 5.21484Z" fill="#242E3E"/>
<path d="M34.4121 9.06281C35.5603 9.46327 39.4106 12.6664 40.5009 13.6078C48.0419 20.1188 54.77 28.7579 55.517 39.0704C56.2255 48.8526 51.3356 56.9715 45.1812 64.1018C42.5266 67.1342 38.8583 70.8021 35.0978 72.3503C35.106 71.6163 35.2248 70.8686 35.314 70.1399C35.5369 68.3178 35.8587 66.5083 36.0687 64.6847C36.6518 59.6421 37.0579 54.5805 37.2866 49.5094C37.6737 39.8062 37.2838 30.0877 36.1207 20.4471C35.8559 18.2461 35.5449 16.0509 35.1883 13.863C34.9259 12.2612 34.6019 10.6764 34.4121 9.06281Z" fill="#242E3E"/>
<path d="M20.4736 87.4394C36.6688 80.3578 54.2589 77.0673 71.9105 77.8175C74.3241 77.897 76.7325 78.0933 79.1272 78.4055C79.8716 78.4995 80.728 78.5409 81.4323 78.8031C81.577 78.8569 81.6546 78.8952 81.7163 79.0384C81.6222 79.8011 78.8608 82.0012 78.1837 82.5323C77.7045 82.908 77.1995 83.3149 76.6641 83.6061C75.1582 83.5021 73.4246 83.0785 71.9002 82.846C69.3934 82.4893 66.8731 82.2361 64.3455 82.0867C61.8081 81.9494 59.2567 81.9978 56.7178 82.052C50.3116 82.1939 43.9245 82.8027 37.6064 83.8733C31.85 84.9182 26.1449 86.2293 20.5092 87.8027L20.5703 87.6893C20.4814 87.657 20.4943 87.6488 20.4492 87.5718L20.5142 87.504L20.4736 87.4394Z" fill="#242E3E"/>
<path d="M18.4941 88.3304C19.0283 87.9323 19.8465 87.6682 20.4739 87.4395L20.5145 87.5041L20.4495 87.5719C20.4946 87.6488 20.4817 87.657 20.5706 87.6893L20.5095 87.8027C19.8329 87.9442 19.1659 88.1625 18.4941 88.3304Z" fill="#0C090A"/>
<path d="M83.0043 32.8182H85.2614L88.2841 40.196H88.4034L91.4261 32.8182H93.6832V43H91.9134V36.005H91.8189L89.005 42.9702H87.6825L84.8686 35.9901H84.7741V43H83.0043V32.8182ZM97.8097 43.1541C97.3258 43.1541 96.8899 43.0679 96.5021 42.8956C96.1177 42.7199 95.8127 42.4614 95.5874 42.12C95.3653 41.7786 95.2543 41.3577 95.2543 40.8572C95.2543 40.4264 95.3338 40.0701 95.4929 39.7884C95.652 39.5066 95.8691 39.2812 96.1442 39.1122C96.4193 38.9432 96.7292 38.8156 97.0739 38.7294C97.4219 38.6399 97.7815 38.5753 98.1527 38.5355C98.6001 38.4891 98.9631 38.4477 99.2415 38.4112C99.5199 38.3714 99.7221 38.3118 99.848 38.2322C99.9773 38.1494 100.042 38.0218 100.042 37.8494V37.8196C100.042 37.4451 99.9309 37.1551 99.7088 36.9496C99.4867 36.7441 99.1669 36.6413 98.7493 36.6413C98.3085 36.6413 97.9588 36.7375 97.7003 36.9297C97.4451 37.1219 97.2727 37.349 97.1832 37.6108L95.5028 37.3722C95.6354 36.9081 95.8542 36.5204 96.1591 36.2088C96.464 35.8939 96.8369 35.6586 97.2777 35.5028C97.7185 35.3438 98.2057 35.2642 98.7393 35.2642C99.1072 35.2642 99.4735 35.3073 99.8381 35.3935C100.203 35.4796 100.536 35.6222 100.837 35.821C101.139 36.0166 101.381 36.2834 101.563 36.6214C101.749 36.9595 101.842 37.3821 101.842 37.8892V43H100.112V41.951H100.052C99.9425 42.1631 99.7884 42.362 99.5895 42.5476C99.3939 42.7299 99.147 42.8774 98.8487 42.9901C98.5537 43.0994 98.2074 43.1541 97.8097 43.1541ZM98.277 41.8317C98.6383 41.8317 98.9515 41.7604 99.2166 41.6179C99.4818 41.4721 99.6856 41.2798 99.8281 41.0412C99.974 40.8026 100.047 40.5424 100.047 40.2607V39.3608C99.9905 39.4072 99.8944 39.4503 99.7585 39.4901C99.6259 39.5298 99.4768 39.5646 99.3111 39.5945C99.1454 39.6243 98.9813 39.6508 98.8189 39.674C98.6565 39.6972 98.5156 39.7171 98.3963 39.7337C98.1278 39.7701 97.8875 39.8298 97.6754 39.9126C97.4633 39.9955 97.2959 40.1115 97.1733 40.2607C97.0507 40.4065 96.9893 40.5954 96.9893 40.8274C96.9893 41.1589 97.1103 41.4091 97.3523 41.5781C97.5942 41.7472 97.9025 41.8317 98.277 41.8317ZM104.496 45.8636C104.251 45.8636 104.024 45.8438 103.815 45.804C103.61 45.7675 103.446 45.7244 103.323 45.6747L103.741 44.2727C104.003 44.349 104.236 44.3854 104.442 44.3821C104.647 44.3788 104.828 44.3142 104.984 44.1882C105.143 44.0656 105.277 43.8601 105.386 43.5717L105.54 43.1591L102.771 35.3636H104.68L106.44 41.1307H106.52L108.285 35.3636H110.199L107.141 43.9247C106.999 44.3291 106.81 44.6754 106.575 44.9638C106.339 45.2554 106.051 45.4775 105.71 45.63C105.371 45.7857 104.967 45.8636 104.496 45.8636ZM115.312 35.3636V36.7557H110.798V35.3636H115.312ZM111.926 43V34.6428C111.926 34.129 112.033 33.7015 112.245 33.3601C112.46 33.0187 112.748 32.7635 113.11 32.5945C113.471 32.4254 113.872 32.3409 114.313 32.3409C114.624 32.3409 114.901 32.3658 115.143 32.4155C115.385 32.4652 115.564 32.5099 115.68 32.5497L115.322 33.9418C115.246 33.9186 115.15 33.8954 115.034 33.8722C114.918 33.8456 114.788 33.8324 114.646 33.8324C114.311 33.8324 114.074 33.9136 113.935 34.076C113.799 34.2351 113.731 34.4638 113.731 34.7621V43H111.926ZM118.521 32.8182V43H116.722V32.8182H118.521ZM123.703 43.1491C122.957 43.1491 122.311 42.9851 121.764 42.657C121.217 42.3288 120.793 41.8698 120.491 41.2798C120.193 40.6899 120.044 40.0005 120.044 39.2116C120.044 38.4228 120.193 37.7318 120.491 37.1385C120.793 36.5452 121.217 36.0845 121.764 35.7564C122.311 35.4283 122.957 35.2642 123.703 35.2642C124.449 35.2642 125.095 35.4283 125.642 35.7564C126.189 36.0845 126.611 36.5452 126.91 37.1385C127.211 37.7318 127.362 38.4228 127.362 39.2116C127.362 40.0005 127.211 40.6899 126.91 41.2798C126.611 41.8698 126.189 42.3288 125.642 42.657C125.095 42.9851 124.449 43.1491 123.703 43.1491ZM123.713 41.7074C124.117 41.7074 124.455 41.5964 124.727 41.3743C124.999 41.1489 125.201 40.8473 125.334 40.4695C125.47 40.0916 125.537 39.6707 125.537 39.2067C125.537 38.7393 125.47 38.3168 125.334 37.9389C125.201 37.5578 124.999 37.2545 124.727 37.0291C124.455 36.8037 124.117 36.6911 123.713 36.6911C123.299 36.6911 122.954 36.8037 122.679 37.0291C122.407 37.2545 122.203 37.5578 122.067 37.9389C121.935 38.3168 121.868 38.7393 121.868 39.2067C121.868 39.6707 121.935 40.0916 122.067 40.4695C122.203 40.8473 122.407 41.1489 122.679 41.3743C122.954 41.5964 123.299 41.7074 123.713 41.7074ZM130.247 43L128.089 35.3636H129.924L131.266 40.733H131.336L132.708 35.3636H134.522L135.895 40.7031H135.969L137.292 35.3636H139.131L136.968 43H135.094L133.662 37.8395H133.558L132.126 43H130.247ZM143.55 43.1491C142.784 43.1491 142.123 42.9901 141.566 42.6719C141.012 42.3504 140.586 41.8963 140.288 41.3097C139.99 40.7197 139.841 40.0253 139.841 39.2266C139.841 38.4411 139.99 37.7517 140.288 37.1584C140.59 36.5618 141.011 36.0978 141.551 35.7663C142.091 35.4316 142.726 35.2642 143.455 35.2642C143.926 35.2642 144.37 35.3404 144.787 35.4929C145.208 35.642 145.58 35.8741 145.901 36.1889C146.226 36.5038 146.481 36.9048 146.667 37.392C146.852 37.8759 146.945 38.4527 146.945 39.1222V39.674H140.686V38.4609H145.22C145.217 38.1162 145.142 37.8097 144.996 37.5412C144.85 37.2694 144.647 37.0556 144.385 36.8999C144.126 36.7441 143.825 36.6662 143.48 36.6662C143.112 36.6662 142.789 36.7557 142.51 36.9347C142.232 37.1103 142.015 37.3423 141.859 37.6307C141.707 37.9157 141.629 38.2289 141.626 38.5703V39.6293C141.626 40.0734 141.707 40.4545 141.869 40.7727C142.032 41.0876 142.259 41.3295 142.55 41.4986C142.842 41.6643 143.183 41.7472 143.574 41.7472C143.836 41.7472 144.073 41.7107 144.285 41.6378C144.497 41.5616 144.681 41.4505 144.837 41.3047C144.993 41.1589 145.111 40.9782 145.19 40.7628L146.871 40.9517C146.765 41.3958 146.562 41.7836 146.264 42.1151C145.969 42.4432 145.591 42.6984 145.131 42.8807C144.67 43.0597 144.143 43.1491 143.55 43.1491ZM148.468 43V35.3636H150.213V36.6364H150.292C150.431 36.1955 150.67 35.8558 151.008 35.6172C151.35 35.3752 151.739 35.2543 152.176 35.2543C152.276 35.2543 152.387 35.2592 152.51 35.2692C152.636 35.2758 152.74 35.2874 152.823 35.304V36.9595C152.747 36.933 152.626 36.9098 152.46 36.8899C152.297 36.8667 152.14 36.8551 151.988 36.8551C151.659 36.8551 151.364 36.9264 151.103 37.0689C150.844 37.2081 150.64 37.402 150.491 37.6506C150.342 37.8991 150.267 38.1858 150.267 38.5107V43H148.468ZM86.2557 60.1491C85.4934 60.1491 84.8388 59.9818 84.2919 59.647C83.7483 59.3123 83.3291 58.8499 83.0341 58.2599C82.7424 57.6667 82.5966 56.9839 82.5966 56.2116C82.5966 55.4361 82.7457 54.7517 83.044 54.1584C83.3423 53.5618 83.7633 53.0978 84.3068 52.7663C84.8537 52.4316 85.5 52.2642 86.2457 52.2642C86.8655 52.2642 87.4141 52.3786 87.8913 52.6072C88.3719 52.8326 88.7547 53.1525 89.0398 53.5668C89.3248 53.9777 89.4872 54.4583 89.527 55.0085H87.8068C87.7372 54.6406 87.5715 54.334 87.3097 54.0888C87.0511 53.8402 86.7048 53.7159 86.2706 53.7159C85.9027 53.7159 85.5795 53.8153 85.3011 54.0142C85.0227 54.2098 84.8056 54.4915 84.6499 54.8594C84.4974 55.2273 84.4212 55.6681 84.4212 56.1818C84.4212 56.7022 84.4974 57.1496 84.6499 57.5241C84.8023 57.8954 85.0161 58.1821 85.2912 58.3842C85.5696 58.5831 85.8961 58.6825 86.2706 58.6825C86.5357 58.6825 86.7727 58.6328 86.9815 58.5334C87.1937 58.4306 87.371 58.2831 87.5135 58.0909C87.656 57.8987 87.7538 57.665 87.8068 57.3899H89.527C89.4839 57.9302 89.3248 58.4091 89.0497 58.8267C88.7746 59.241 88.4001 59.5658 87.9261 59.8011C87.4522 60.0331 86.8954 60.1491 86.2557 60.1491ZM94.3358 60.1491C93.59 60.1491 92.9437 59.9851 92.3968 59.657C91.85 59.3288 91.4257 58.8698 91.1241 58.2798C90.8258 57.6899 90.6767 57.0005 90.6767 56.2116C90.6767 55.4228 90.8258 54.7318 91.1241 54.1385C91.4257 53.5452 91.85 53.0845 92.3968 52.7564C92.9437 52.4283 93.59 52.2642 94.3358 52.2642C95.0815 52.2642 95.7278 52.4283 96.2747 52.7564C96.8216 53.0845 97.2441 53.5452 97.5424 54.1385C97.844 54.7318 97.9949 55.4228 97.9949 56.2116C97.9949 57.0005 97.844 57.6899 97.5424 58.2798C97.2441 58.8698 96.8216 59.3288 96.2747 59.657C95.7278 59.9851 95.0815 60.1491 94.3358 60.1491ZM94.3457 58.7074C94.7501 58.7074 95.0881 58.5964 95.3599 58.3743C95.6317 58.1489 95.8339 57.8473 95.9664 57.4695C96.1023 57.0916 96.1703 56.6707 96.1703 56.2067C96.1703 55.7393 96.1023 55.3168 95.9664 54.9389C95.8339 54.5578 95.6317 54.2545 95.3599 54.0291C95.0881 53.8037 94.7501 53.6911 94.3457 53.6911C93.9314 53.6911 93.5867 53.8037 93.3116 54.0291C93.0398 54.2545 92.836 54.5578 92.7001 54.9389C92.5675 55.3168 92.5012 55.7393 92.5012 56.2067C92.5012 56.6707 92.5675 57.0916 92.7001 57.4695C92.836 57.8473 93.0398 58.1489 93.3116 58.3743C93.5867 58.5964 93.9314 58.7074 94.3457 58.7074ZM101.322 55.5256V60H99.5224V52.3636H101.243V53.6612H101.332C101.508 53.2337 101.788 52.8939 102.172 52.642C102.56 52.3902 103.039 52.2642 103.609 52.2642C104.136 52.2642 104.595 52.3769 104.986 52.6023C105.381 52.8277 105.685 53.1541 105.901 53.5817C106.12 54.0092 106.227 54.5279 106.224 55.1378V60H104.424V55.4162C104.424 54.9058 104.292 54.5064 104.027 54.218C103.765 53.9297 103.402 53.7855 102.938 53.7855C102.623 53.7855 102.343 53.8551 102.098 53.9943C101.856 54.1302 101.665 54.3274 101.526 54.5859C101.39 54.8445 101.322 55.1577 101.322 55.5256ZM114.089 54.3821L112.449 54.5611C112.402 54.3954 112.321 54.2396 112.205 54.0938C112.092 53.9479 111.94 53.8303 111.748 53.7408C111.555 53.6513 111.32 53.6065 111.042 53.6065C110.667 53.6065 110.352 53.6877 110.097 53.8501C109.845 54.0125 109.721 54.223 109.724 54.4815C109.721 54.7036 109.802 54.8842 109.968 55.0234C110.137 55.1626 110.415 55.277 110.803 55.3665L112.105 55.6449C112.828 55.8007 113.365 56.0476 113.716 56.3857C114.071 56.7237 114.25 57.1662 114.253 57.7131C114.25 58.1937 114.109 58.6179 113.831 58.9858C113.556 59.3504 113.173 59.6354 112.682 59.8409C112.192 60.0464 111.628 60.1491 110.992 60.1491C110.057 60.1491 109.305 59.9536 108.735 59.5625C108.165 59.1681 107.825 58.6196 107.716 57.9169L109.471 57.7479C109.55 58.0926 109.719 58.3527 109.978 58.5284C110.236 58.7041 110.573 58.7919 110.987 58.7919C111.414 58.7919 111.757 58.7041 112.016 58.5284C112.278 58.3527 112.409 58.1357 112.409 57.8771C112.409 57.6584 112.324 57.4777 112.155 57.3352C111.989 57.1927 111.731 57.0833 111.38 57.0071L110.077 56.7337C109.345 56.5812 108.803 56.3243 108.451 55.9631C108.1 55.5985 107.926 55.1378 107.929 54.581C107.926 54.1103 108.054 53.7027 108.312 53.358C108.574 53.0099 108.937 52.7415 109.401 52.5526C109.868 52.3603 110.407 52.2642 111.017 52.2642C111.912 52.2642 112.616 52.4548 113.13 52.8359C113.647 53.2171 113.967 53.7325 114.089 54.3821ZM120.604 56.7884V52.3636H122.404V60H120.659V58.6428H120.58C120.407 59.0703 120.124 59.42 119.729 59.6918C119.338 59.9635 118.856 60.0994 118.283 60.0994C117.782 60.0994 117.34 59.9884 116.955 59.7663C116.574 59.541 116.276 59.2145 116.06 58.7869C115.845 58.3561 115.737 57.8357 115.737 57.2259V52.3636H117.537V56.9474C117.537 57.4313 117.67 57.8158 117.935 58.1009C118.2 58.3859 118.548 58.5284 118.979 58.5284C119.244 58.5284 119.501 58.4638 119.749 58.3345C119.998 58.2053 120.202 58.013 120.361 57.7578C120.523 57.4993 120.604 57.1761 120.604 56.7884ZM126.055 49.8182V60H124.255V49.8182H126.055ZM131.718 52.3636V53.7557H127.328V52.3636H131.718ZM128.412 50.5341H130.212V57.7031C130.212 57.9451 130.248 58.1307 130.321 58.2599C130.398 58.3859 130.497 58.4721 130.62 58.5185C130.742 58.5649 130.878 58.5881 131.027 58.5881C131.14 58.5881 131.243 58.5798 131.336 58.5632C131.432 58.5466 131.505 58.5317 131.554 58.5185L131.858 59.9254C131.761 59.9586 131.624 59.995 131.445 60.0348C131.269 60.0746 131.054 60.0978 130.799 60.1044C130.348 60.1177 129.942 60.0497 129.581 59.9006C129.219 59.7481 128.933 59.5128 128.721 59.1946C128.512 58.8764 128.409 58.4787 128.412 58.0014V50.5341ZM133.224 60V52.3636H135.023V60H133.224ZM134.128 51.2798C133.843 51.2798 133.598 51.1854 133.393 50.9964C133.187 50.8042 133.084 50.5739 133.084 50.3054C133.084 50.0336 133.187 49.8033 133.393 49.6143C133.598 49.4221 133.843 49.326 134.128 49.326C134.417 49.326 134.662 49.4221 134.864 49.6143C135.07 49.8033 135.172 50.0336 135.172 50.3054C135.172 50.5739 135.07 50.8042 134.864 50.9964C134.662 51.1854 134.417 51.2798 134.128 51.2798ZM138.674 55.5256V60H136.874V52.3636H138.594V53.6612H138.684C138.859 53.2337 139.139 52.8939 139.524 52.642C139.912 52.3902 140.391 52.2642 140.961 52.2642C141.488 52.2642 141.947 52.3769 142.338 52.6023C142.732 52.8277 143.037 53.1541 143.252 53.5817C143.471 54.0092 143.579 54.5279 143.576 55.1378V60H141.776V55.4162C141.776 54.9058 141.643 54.5064 141.378 54.218C141.116 53.9297 140.753 53.7855 140.289 53.7855C139.975 53.7855 139.694 53.8551 139.449 53.9943C139.207 54.1302 139.017 54.3274 138.877 54.5859C138.742 54.8445 138.674 55.1577 138.674 55.5256ZM148.726 63.0227C148.08 63.0227 147.525 62.9349 147.061 62.7592C146.597 62.5869 146.224 62.3549 145.942 62.0632C145.66 61.7715 145.465 61.4484 145.355 61.0938L146.976 60.701C147.049 60.8501 147.155 60.9976 147.294 61.1435C147.434 61.2926 147.621 61.4152 147.856 61.5114C148.095 61.6108 148.395 61.6605 148.756 61.6605C149.266 61.6605 149.689 61.5362 150.024 61.2876C150.359 61.0424 150.526 60.638 150.526 60.0746V58.6278H150.436C150.344 58.8134 150.208 59.004 150.029 59.1996C149.853 59.3951 149.619 59.5592 149.328 59.6918C149.039 59.8243 148.676 59.8906 148.239 59.8906C147.652 59.8906 147.12 59.7531 146.643 59.478C146.169 59.1996 145.791 58.7853 145.51 58.2351C145.231 57.6816 145.092 56.9889 145.092 56.157C145.092 55.3184 145.231 54.6108 145.51 54.0341C145.791 53.4541 146.171 53.0149 146.648 52.7166C147.125 52.415 147.657 52.2642 148.244 52.2642C148.691 52.2642 149.059 52.3404 149.348 52.4929C149.639 52.642 149.871 52.8227 150.044 53.0348C150.216 53.2436 150.347 53.4408 150.436 53.6264H150.536V52.3636H152.311V60.1243C152.311 60.7772 152.155 61.3175 151.843 61.745C151.532 62.1726 151.106 62.4924 150.566 62.7045C150.025 62.9167 149.412 63.0227 148.726 63.0227ZM148.741 58.4787C149.122 58.4787 149.447 58.3859 149.716 58.2003C149.984 58.0147 150.188 57.7479 150.327 57.3999C150.466 57.0518 150.536 56.6342 150.536 56.147C150.536 55.6664 150.466 55.2455 150.327 54.8842C150.191 54.523 149.989 54.2429 149.721 54.044C149.455 53.8419 149.129 53.7408 148.741 53.7408C148.34 53.7408 148.005 53.8452 147.737 54.054C147.468 54.2628 147.266 54.5495 147.13 54.9141C146.994 55.2753 146.926 55.6863 146.926 56.147C146.926 56.6143 146.994 57.0237 147.13 57.375C147.27 57.723 147.473 57.9948 147.742 58.1903C148.014 58.3826 148.347 58.4787 148.741 58.4787Z" fill="#161E2F"/>
</svg>
